HIERARCHY
ROOT Model
{
	OFFSET 0 0 0
	CHANNELS 6 Xposition Yposition Zposition Zrotation Xrotation Yrotation
	JOINT Model1
	{
		OFFSET 0 -2.25479 2.99384
		CHANNELS 3 Zrotation Xrotation Yrotation
		JOINT Model2
		{
			OFFSET 12.111 0 0
			CHANNELS 3 Zrotation Xrotation Yrotation
			JOINT Model3
			{
				OFFSET 11.5502 0 0
				CHANNELS 3 Zrotation Xrotation Yrotation
				JOINT Model4
				{
					OFFSET 11.781 0 0
					CHANNELS 3 Zrotation Xrotation Yrotation
					JOINT Model5
					{
						OFFSET 20.0601 0 0
						CHANNELS 3 Zrotation Xrotation Yrotation
						JOINT Model6
						{
							OFFSET 11.1962 0 0
							CHANNELS 3 Zrotation Xrotation Yrotation
							End Site
							{
								OFFSET 0 0 0
							}
						}
					}
					JOINT Model7
					{
						OFFSET 10.8223 0.417534 3.51114
						CHANNELS 3 Zrotation Xrotation Yrotation
						JOINT Model8
						{
							OFFSET -6.07944 0 0
							CHANNELS 3 Zrotation Xrotation Yrotation
							JOINT Model9
							{
								OFFSET -0.277405 10.39 -0.051239
								CHANNELS 3 Zrotation Xrotation Yrotation
								JOINT Model10
								{
									OFFSET -3.43909 -0.282043 1.86679
									CHANNELS 3 Zrotation Xrotation Yrotation
									JOINT Model11
									{
										OFFSET 13.0269 0 0
										CHANNELS 3 Zrotation Xrotation Yrotation
										JOINT Model12
										{
											OFFSET 10.8866 0 0
											CHANNELS 3 Zrotation Xrotation Yrotation
											JOINT Model13
											{
												OFFSET 16.7317 0 0
												CHANNELS 3 Zrotation Xrotation Yrotation
												JOINT Model14
												{
													OFFSET 11.8292 0 0
													CHANNELS 3 Zrotation Xrotation Yrotation
													JOINT Model15
													{
														OFFSET 4.82751 -3.73566 -0.836517
														CHANNELS 3 Zrotation Xrotation Yrotation
														JOINT Model16
														{
															OFFSET 3.75311 -0.0582886 -0.0186462
															CHANNELS 3 Zrotation Xrotation Yrotation
															JOINT Model17
															{
																OFFSET 2.88689 0.0192337 0.014801
																CHANNELS 3 Zrotation Xrotation Yrotation
																End Site
																{
																	OFFSET 0 0 0
																}
															}
														}
													}
													JOINT Model18
													{
														OFFSET 9.72197 -3.06458 0.23877
														CHANNELS 3 Zrotation Xrotation Yrotation
														JOINT Model19
														{
															OFFSET 4.61131 0 0
															CHANNELS 3 Zrotation Xrotation Yrotation
															JOINT Model20
															{
																OFFSET 2.8969 -7.62939e-006 0
																CHANNELS 3 Zrotation Xrotation Yrotation
																End Site
																{
																	OFFSET 0 0 0
																}
															}
														}
													}
													JOINT Model21
													{
														OFFSET 9.54431 -0.745064 0.588928
														CHANNELS 3 Zrotation Xrotation Yrotation
														JOINT Model22
														{
															OFFSET 5.33978 0 0
															CHANNELS 3 Zrotation Xrotation Yrotation
															JOINT Model23
															{
																OFFSET 3.03619 7.62939e-006 0
																CHANNELS 3 Zrotation Xrotation Yrotation
																End Site
																{
																	OFFSET 0 0 0
																}
															}
														}
													}
													JOINT Model24
													{
														OFFSET 9.47758 1.51286 0.485107
														CHANNELS 3 Zrotation Xrotation Yrotation
														JOINT Model25
														{
															OFFSET 4.96136 7.62939e-006 0
															CHANNELS 3 Zrotation Xrotation Yrotation
															JOINT Model26
															{
																OFFSET 2.51965 0 0
																CHANNELS 3 Zrotation Xrotation Yrotation
																End Site
																{
																	OFFSET 0 0 0
																}
															}
														}
													}
													JOINT Model27
													{
														OFFSET 9.34247 3.34117 -0.239288
														CHANNELS 3 Zrotation Xrotation Yrotation
														JOINT Model28
														{
															OFFSET 3.28259 2.28882e-005 0
															CHANNELS 3 Zrotation Xrotation Yrotation
															JOINT Model29
															{
																OFFSET 2.1292 0 0
																CHANNELS 3 Zrotation Xrotation Yrotation
																End Site
																{
																	OFFSET 0 0 0
																}
															}
														}
													}
												}
											}
										}
									}
								}
							}
						}
					}
					JOINT Model30
					{
						OFFSET 10.8223 0.4179 -3.51108
						CHANNELS 3 Zrotation Xrotation Yrotation
						JOINT Model31
						{
							OFFSET 6.07944 0 0
							CHANNELS 3 Zrotation Xrotation Yrotation
							JOINT Model32
							{
								OFFSET 0.277405 -10.39 0.051239
								CHANNELS 3 Zrotation Xrotation Yrotation
								JOINT Model33
								{
									OFFSET 3.43909 0.282043 -1.86679
									CHANNELS 3 Zrotation Xrotation Yrotation
									JOINT Model34
									{
										OFFSET -13.0269 0 0
										CHANNELS 3 Zrotation Xrotation Yrotation
										JOINT Model35
										{
											OFFSET -10.8866 0 0
											CHANNELS 3 Zrotation Xrotation Yrotation
											JOINT Model36
											{
												OFFSET -16.7317 0 0
												CHANNELS 3 Zrotation Xrotation Yrotation
												JOINT Model37
												{
													OFFSET -11.8292 0 0
													CHANNELS 3 Zrotation Xrotation Yrotation
													JOINT Model38
													{
														OFFSET -4.82751 3.73566 0.836517
														CHANNELS 3 Zrotation Xrotation Yrotation
														JOINT Model39
														{
															OFFSET -3.75311 0.0582886 0.0186462
															CHANNELS 3 Zrotation Xrotation Yrotation
															JOINT Model40
															{
																OFFSET -2.88687 -0.0192337 -0.014801
																CHANNELS 3 Zrotation Xrotation Yrotation
																End Site
																{
																	OFFSET 0 0 0
																}
															}
														}
													}
													JOINT Model41
													{
														OFFSET -9.72198 3.06459 -0.23877
														CHANNELS 3 Zrotation Xrotation Yrotation
														JOINT Model42
														{
															OFFSET -4.6113 0 0
															CHANNELS 3 Zrotation Xrotation Yrotation
															JOINT Model43
															{
																OFFSET -2.89691 0 0
																CHANNELS 3 Zrotation Xrotation Yrotation
																End Site
																{
																	OFFSET 0 0 0
																}
															}
														}
													}
													JOINT Model44
													{
														OFFSET -9.54431 0.745064 -0.588928
														CHANNELS 3 Zrotation Xrotation Yrotation
														JOINT Model45
														{
															OFFSET -5.33978 0 0
															CHANNELS 3 Zrotation Xrotation Yrotation
															JOINT Model46
															{
																OFFSET -3.03619 -1.52588e-005 0
																CHANNELS 3 Zrotation Xrotation Yrotation
																End Site
																{
																	OFFSET 0 0 0
																}
															}
														}
													}
													JOINT Model47
													{
														OFFSET -9.4776 -1.51286 -0.485107
														CHANNELS 3 Zrotation Xrotation Yrotation
														JOINT Model48
														{
															OFFSET -4.96136 -1.52588e-005 0
															CHANNELS 3 Zrotation Xrotation Yrotation
															JOINT Model49
															{
																OFFSET -2.51965 0 0
																CHANNELS 3 Zrotation Xrotation Yrotation
																End Site
																{
																	OFFSET 0 0 0
																}
															}
														}
													}
													JOINT Model50
													{
														OFFSET -9.34247 -3.34118 0.239288
														CHANNELS 3 Zrotation Xrotation Yrotation
														JOINT Model51
														{
															OFFSET -3.28259 -2.28882e-005 0
															CHANNELS 3 Zrotation Xrotation Yrotation
															JOINT Model52
															{
																OFFSET -2.12921 0 0
																CHANNELS 3 Zrotation Xrotation Yrotation
																End Site
																{
																	OFFSET 0 0 0
																}
															}
														}
													}
												}
											}
										}
									}
								}
							}
						}
					}
				}
			}
		}
	}
	JOINT Model53
	{
		OFFSET 4.38025 -2.14632 -1.11517
		CHANNELS 3 Zrotation Xrotation Yrotation
		JOINT Model54
		{
			OFFSET 0 0 4.94998
			CHANNELS 3 Zrotation Xrotation Yrotation
			JOINT Model55
			{
				OFFSET 18.5642 0 0
				CHANNELS 3 Zrotation Xrotation Yrotation
				JOINT Model56
				{
					OFFSET 21.2884 0 0
					CHANNELS 3 Zrotation Xrotation Yrotation
					JOINT Model57
					{
						OFFSET 30.261 0 0
						CHANNELS 3 Zrotation Xrotation Yrotation
						JOINT Model58
						{
							OFFSET 11.7259 0 0
							CHANNELS 3 Zrotation Xrotation Yrotation
							JOINT Model59
							{
								OFFSET 10.682 0 0
								CHANNELS 3 Zrotation Xrotation Yrotation
								End Site
								{
									OFFSET 0 0 0
								}
							}
						}
					}
				}
			}
		}
	}
	JOINT Model60
	{
		OFFSET -4.38025 -2.14632 -1.11517
		CHANNELS 3 Zrotation Xrotation Yrotation
		JOINT Model61
		{
			OFFSET 0 0 -4.94998
			CHANNELS 3 Zrotation Xrotation Yrotation
			JOINT Model62
			{
				OFFSET -18.5642 0 0
				CHANNELS 3 Zrotation Xrotation Yrotation
				JOINT Model63
				{
					OFFSET -21.2884 0 0
					CHANNELS 3 Zrotation Xrotation Yrotation
					JOINT Model64
					{
						OFFSET -30.261 0 0
						CHANNELS 3 Zrotation Xrotation Yrotation
						JOINT Model65
						{
							OFFSET -11.7259 0 0
							CHANNELS 3 Zrotation Xrotation Yrotation
							JOINT Model66
							{
								OFFSET -10.682 0 0
								CHANNELS 3 Zrotation Xrotation Yrotation
								End Site
								{
									OFFSET 0 0 0
								}
							}
						}
					}
				}
			}
		}
	}
}
MOTION
Frames: 5
Frame Time: 0.033333
-649.558 173.614 -728.113 92.8903 -53.2408 94.4065 -180 4.29621e-031 -90 0.545088 0.0967088 -0.240831 1.09057 0.190684 -0.482572 1.09057 0.191121 -0.48258 -0.953776 2.05779 -1.40688 10.4871 1.77536 4.06873 120.092 75.5343 58.4939 10.939 -2.4727 -2.04142 -167.277 84.4999 48.8109 164.395 -9.68457 -36.275 2.83744e-006 16.1353 3.14e-005 0.165906 -3.49374 2.3174 -3.08331e-007 -5.1814 -5.96549e-007 4.91465 0.0796113 1.85496 -72.0648 39.0385 39.3397 33.3638 2.10362 14.835 0.588947 0.308273 6.35287 -99.6409 81.413 100.35 -0.018141 2.78122e-005 -0.117315 -0.124139 0.00241116 -0.799296 -79.8382 79.5773 80.5374 -0.000225815 -0.000220891 2.21073e-005 -0.000956279 0.000122937 -2.74388e-005 -66.7416 80.4058 67.2171 -0.000437175 1.59783e-005 -2.74071e-005 -0.000136663 -0.000109247 -5.47585e-005 -6.42159 81.2158 8.01779 -0.000218625 1.69439e-005 0.000212046 0.000901504 -0.000184753 -0.000218693 -59.9282 75.5373 58.5147 12.0517 10.2365 0.338972 -167.277 84.4999 48.8109 171.754 -20.9641 -23.9241 7.16325e-006 -0.39178 2.90839e-005 -1.51213 10.8119 -0.13904 -6.53006e-006 16.2465 2.91017e-006 -1.77318 0.147862 -9.53272 -72.0648 39.0385 39.3397 33.3638 2.10361 14.835 0.588946 0.308273 6.35287 -99.6409 81.413 100.35 -0.0181409 3.01282e-005 -0.117315 -0.124139 0.0024112 -0.799296 -79.8382 79.5773 80.5374 -0.000260639 -0.000218513 2.36798e-005 -0.000956217 0.000123069 -2.71726e-005 -66.7416 80.4058 67.2171 -0.000437121 1.49326e-005 -2.72106e-005 -0.000136589 -0.000109214 -5.44923e-005 -6.42159 81.2158 8.01779 -0.000218546 1.96112e-005 0.000212397 0.00090161 -0.000191202 -0.00021843 0.000811311 0.56661 89.91 -18.3076 -2.9468 -9.68975 4.83437e-007 1.30085 -3.34982e-009 40.1623 -1.54634 -1.57886 -7.1765e-008 -2.39603 -6.7952e-008 -70.0349 -5.4805 1.8391 -35.4947 7.34273e-007 -5.78934e-007 -180 -0.566579 -90.09 -17.3997 -4.11929 -8.3969 -3.77488e-007 -1.10025 -8.97668e-009 35.7839 0.455529 -1.49048 4.05857e-007 0.615966 4.94586e-008 -66.6108 -5.39056 2.11724 -35.4947 1.11081e-007 1.87779e-007 
-649.547 173.648 -727.943 92.9378 -53.1674 94.4197 -180 4.29621e-031 -90 0.564959 0.190523 -0.311489 1.13095 0.377525 -0.624846 1.13095 0.377962 -0.624855 -1.3013 1.7197 -0.360933 11.5039 1.69399 3.35969 120.092 75.5343 58.4939 12.1465 -0.299872 -1.77432 -167.277 84.4999 48.8109 166.73 -10.8756 -34.9829 3.2205e-006 15.4616 3.12957e-005 0.113557 -3.42156 1.61497 -3.07172e-007 -5.07054 -5.96446e-007 5.11904 0.092316 2.06494 -72.0648 39.0385 39.3397 33.3638 2.10362 14.835 0.588947 0.308273 6.35287 -99.6409 81.413 100.35 -0.018141 2.78122e-005 -0.117315 -0.124139 0.00241116 -0.799296 -79.8382 79.5773 80.5374 -0.000225815 -0.000220891 2.21073e-005 -0.000956279 0.000122937 -2.74388e-005 -66.7416 80.4058 67.2171 -0.000437175 1.59783e-005 -2.74071e-005 -0.000136663 -0.000109247 -5.47585e-005 -6.42159 81.2158 8.01779 -0.000218625 1.69439e-005 0.000212046 0.000901504 -0.000184753 -0.000218693 -59.9282 75.5373 58.5147 11.221 8.95503 0.286658 -167.277 84.4999 48.8109 170.293 -20.71 -24.7014 7.16132e-006 -0.387978 2.90839e-005 -1.49209 11.3307 -0.150092 -6.57141e-006 17.025 2.92201e-006 -1.37705 0.116359 -9.65938 -72.0648 39.0385 39.3397 33.3638 2.10361 14.835 0.588946 0.308273 6.35287 -99.6409 81.413 100.35 -0.0181409 3.01282e-005 -0.117315 -0.124139 0.0024112 -0.799296 -79.8382 79.5773 80.5374 -0.000260639 -0.000218513 2.36798e-005 -0.000956217 0.000123069 -2.71726e-005 -66.7416 80.4058 67.2171 -0.000437121 1.49326e-005 -2.72106e-005 -0.000136589 -0.000109214 -5.44923e-005 -6.42159 81.2158 8.01779 -0.000218546 1.96112e-005 0.000212397 0.00090161 -0.000191202 -0.00021843 0.000811311 0.56661 89.91 -18.1346 -3.20261 -9.88756 4.83423e-007 1.05794 -3.34953e-009 39.9536 -1.29509 -1.60419 -7.13171e-008 -2.01866 -6.79348e-008 -70.0512 -5.35154 1.77103 -35.4947 7.35733e-007 -5.69377e-007 -180 -0.566579 -90.09 -17.2535 -4.59124 -8.9549 -3.77544e-007 -1.45713 -8.97793e-009 35.6982 0.831317 -0.939538 4.0537e-007 1.17977 4.94662e-008 -66.7108 -4.90846 1.84091 -35.4947 1.20137e-007 6.0694e-006 
-649.647 173.673 -727.811 93.1011 -53.0043 94.6072 -180 4.29621e-031 -90 0.598618 0.195135 -0.321118 1.19832 0.386464 -0.644262 1.19832 0.386901 -0.644271 -1.67099 1.61802 -0.0256031 12.2446 1.68473 3.16107 120.092 75.5343 58.4939 12.5338 0.358683 -1.70649 -167.277 84.4999 48.8109 167.583 -11.2995 -34.3719 3.38544e-006 15.1702 3.12521e-005 0.0930532 -3.23498 1.38758 -3.04241e-007 -4.78997 -5.96194e-007 5.06058 0.0836545 1.89288 -72.0648 39.0385 39.3397 33.3638 2.10362 14.835 0.588947 0.308273 6.35287 -99.6409 81.413 100.35 -0.018141 2.78122e-005 -0.117315 -0.124139 0.00241116 -0.799296 -79.8382 79.5773 80.5374 -0.000225815 -0.000220891 2.21073e-005 -0.000956279 0.000122937 -2.74388e-005 -66.7416 80.4058 67.2171 -0.000437175 1.59783e-005 -2.74071e-005 -0.000136663 -0.000109247 -5.47585e-005 -6.42159 81.2158 8.01779 -0.000218625 1.69439e-005 0.000212046 0.000901504 -0.000184753 -0.000218693 -59.9282 75.5373 58.5147 11.1391 8.50381 0.213753 -167.277 84.4999 48.8109 169.576 -20.53 -24.8643 7.15906e-006 -0.383522 2.90839e-005 -1.48918 11.4058 -0.151734 -6.57743e-006 17.1378 2.92378e-006 -1.28146 0.108582 -9.68612 -72.0648 39.0385 39.3397 33.3638 2.10361 14.835 0.588946 0.308273 6.35287 -99.6409 81.413 100.35 -0.0181409 3.01282e-005 -0.117315 -0.124139 0.0024112 -0.799296 -79.8382 79.5773 80.5374 -0.000260639 -0.000218513 2.36798e-005 -0.000956217 0.000123069 -2.71726e-005 -66.7416 80.4058 67.2171 -0.000437121 1.49326e-005 -2.72106e-005 -0.000136589 -0.000109214 -5.44923e-005 -6.42159 81.2158 8.01779 -0.000218546 1.96112e-005 0.000212397 0.00090161 -0.000191202 -0.00021843 0.000811311 0.56661 89.91 -17.8918 -2.92512 -9.83446 4.83447e-007 1.47954 -3.35008e-009 39.7972 -1.51115 -1.53512 -7.17015e-008 -2.34253 -6.79494e-008 -69.9625 -5.57727 1.89595 -35.4947 7.40203e-007 -5.60909e-007 -180 -0.566579 -90.09 -17.0132 -4.65594 -8.85461 -3.77563e-007 -1.58242 -8.97845e-009 35.6234 0.818411 -0.898648 4.05387e-007 1.16054 4.94659e-008 -66.7493 -4.81604 1.78632 -35.4947 1.48388e-007 1.16994e-005 
-649.781 173.673 -727.753 93.1938 -52.9218 94.7816 -180 4.29621e-031 -90 0.629759 0.200229 -0.310581 1.2606 0.396591 -0.623349 1.2606 0.397028 -0.623358 -2.09124 1.52059 0.0353943 12.8105 1.61528 3.08172 120.092 75.5343 58.4939 12.6072 0.221061 -1.74567 -167.277 84.4999 48.8109 167.543 -11.3189 -34.1601 3.44905e-006 15.0576 3.12355e-005 0.0933493 -3.1099 1.43872 -3.02283e-007 -4.60242 -5.96033e-007 4.26667 0.0791072 2.1234 -72.0648 39.0385 39.3397 33.3638 2.10362 14.835 0.588947 0.308273 6.35287 -99.6409 81.413 100.35 -0.018141 2.78122e-005 -0.117315 -0.124139 0.00241116 -0.799296 -79.8382 79.5773 80.5374 -0.000225815 -0.000220891 2.21073e-005 -0.000956279 0.000122937 -2.74388e-005 -66.7416 80.4058 67.2171 -0.000437175 1.59783e-005 -2.74071e-005 -0.000136663 -0.000109247 -5.47585e-005 -6.42159 81.2158 8.01779 -0.000218625 1.69439e-005 0.000212046 0.000901504 -0.000184753 -0.000218693 -59.9282 75.5373 58.5147 10.7018 8.17573 0.249172 -167.277 84.4999 48.8109 168.652 -20.3978 -25.554 7.15906e-006 -0.383529 2.90839e-005 -1.49878 11.157 -0.146356 -6.55753e-006 16.7644 2.91798e-006 -1.41413 0.11845 -9.57549 -72.0648 39.0385 39.3397 33.3638 2.10361 14.835 0.588946 0.308273 6.35287 -99.6409 81.413 100.35 -0.0181409 3.01282e-005 -0.117315 -0.124139 0.0024112 -0.799296 -79.8382 79.5773 80.5374 -0.000260639 -0.000218513 2.36798e-005 -0.000956217 0.000123069 -2.71726e-005 -66.7416 80.4058 67.2171 -0.000437121 1.49326e-005 -2.72106e-005 -0.000136589 -0.000109214 -5.44923e-005 -6.42159 81.2158 8.01779 -0.000218546 1.96112e-005 0.000212397 0.00090161 -0.000191202 -0.00021843 0.000811311 0.56661 89.91 -17.7911 -2.54557 -9.74438 4.83478e-007 2.01103 -3.35103e-009 39.7762 -1.83623 -1.48213 -7.22805e-008 -2.83022 -6.79755e-008 -69.87 -5.8896 2.06654 -35.4947 7.47525e-007 -5.53471e-007 -180 -0.566579 -90.09 -16.9279 -4.63862 -8.56936 -3.77584e-007 -1.71734 -8.97906e-009 35.6314 0.805684 -1.0862 4.05403e-007 1.1415 4.94655e-008 -66.7708 -4.80424 1.77787 -35.4947 1.94704e-007 1.70915e-005 
-649.885 173.674 -727.757 93.1002 -52.8656 94.7563 -180 4.29621e-031 -90 0.638269 0.217945 -0.309999 1.27771 0.431982 -0.622414 1.27771 0.432419 -0.622423 -2.35377 1.42601 -0.0730934 13.0366 1.50499 3.12942 120.092 75.5343 58.4939 12.5199 0.316002 -1.7126 -167.277 84.4999 48.8109 167.63 -11.4336 -34.2731 3.49626e-006 14.9739 3.12233e-005 0.101841 -3.06009 1.59081 -3.01507e-007 -4.52807 -5.95972e-007 3.74843 0.0826485 2.52532 -72.0648 39.0385 39.3397 33.3638 2.10362 14.835 0.588947 0.308273 6.35287 -99.6409 81.413 100.35 -0.018141 2.78122e-005 -0.117315 -0.124139 0.00241116 -0.799296 -79.8382 79.5773 80.5374 -0.000225815 -0.000220891 2.21073e-005 -0.000956279 0.000122937 -2.74388e-005 -66.7416 80.4058 67.2171 -0.000437175 1.59783e-005 -2.74071e-005 -0.000136663 -0.000109247 -5.47585e-005 -6.42159 81.2158 8.01779 -0.000218625 1.69439e-005 0.000212046 0.000901504 -0.000184753 -0.000218693 -59.9282 75.5373 58.5147 10.3006 7.85573 0.275517 -167.277 84.4999 48.8109 167.805 -20.2652 -26.1741 7.15901e-006 -0.383417 2.90839e-005 -1.50731 10.9354 -0.141659 -6.53987e-006 16.4317 2.91293e-006 -1.4529 0.12218 -9.6133 -72.0648 39.0385 39.3397 33.3638 2.10361 14.835 0.588946 0.308273 6.35287 -99.6409 81.413 100.35 -0.0181409 3.01282e-005 -0.117315 -0.124139 0.0024112 -0.799296 -79.8382 79.5773 80.5374 -0.000260639 -0.000218513 2.36798e-005 -0.000956217 0.000123069 -2.71726e-005 -66.7416 80.4058 67.2171 -0.000437121 1.49326e-005 -2.72106e-005 -0.000136589 -0.000109214 -5.44923e-005 -6.42159 81.2158 8.01779 -0.000218546 1.96112e-005 0.000212397 0.00090161 -0.000191202 -0.00021843 0.000811311 0.56661 89.91 -17.8893 -2.39398 -9.72589 4.8349e-007 2.21323 -3.35146e-009 39.7784 -1.93523 -1.49982 -7.24571e-008 -2.97881 -6.79845e-008 -69.7918 -6.01656 2.14014 -35.4947 7.57539e-007 -5.47006e-007 -180 -0.566579 -90.09 -17.0186 -4.60486 -8.36316 -3.77598e-007 -1.80262 -8.97947e-009 35.6665 0.786083 -1.26372 4.05429e-007 1.11209 4.9465e-008 -66.7623 -4.81948 1.78706 -35.4947 2.57956e-007 2.22594e-005 
